# WorldVision-SLAM 저상형 승용차 저폴리 모형
# +x 진행 방향, +y 위, +z 가로. 단위 m (전장 4.3, 전폭 1.7, 전고 1.5).
# 이 저장소에서 만든 자산이다 - 외부 라이선스가 걸리지 않는다.
# 뷰어는 --car-model 로 어떤 OBJ 든 받으므로 교체할 수 있다.
o car
v -2.1500 0.3200 -0.8084
v 2.1500 0.3200 -0.7740
v 2.1500 0.3200 0.7740
v -2.1500 0.3200 0.8084
v -2.1500 0.8200 -0.8084
v 2.1500 0.8200 -0.7740
v 2.1500 0.8200 0.7740
v -2.1500 0.8200 0.8084
v -2.0500 0.8200 -0.7380
v 2.0500 0.8200 -0.7052
v 2.0500 0.8200 0.7052
v -2.0500 0.8200 0.7380
v -2.0500 0.9800 -0.7380
v 2.0500 0.9800 -0.7052
v 2.0500 0.9800 0.7052
v -2.0500 0.9800 0.7380
v -1.2500 0.9800 -0.6992
v 0.6200 0.9800 -0.5472
v 0.6200 0.9800 0.5472
v -1.2500 0.9800 0.6992
v -1.2500 1.4600 -0.6992
v 0.6200 1.4600 -0.5472
v 0.6200 1.4600 0.5472
v -1.2500 1.4600 0.6992
v 1.6600 0.3400 -0.9100
v 1.6600 0.3400 -0.6900
v 1.5951 0.5398 -0.9100
v 1.5951 0.5398 -0.6900
v 1.4251 0.6634 -0.9100
v 1.4251 0.6634 -0.6900
v 1.2149 0.6634 -0.9100
v 1.2149 0.6634 -0.6900
v 1.0449 0.5398 -0.9100
v 1.0449 0.5398 -0.6900
v 0.9800 0.3400 -0.9100
v 0.9800 0.3400 -0.6900
v 1.0449 0.1402 -0.9100
v 1.0449 0.1402 -0.6900
v 1.2149 0.0166 -0.9100
v 1.2149 0.0166 -0.6900
v 1.4251 0.0166 -0.9100
v 1.4251 0.0166 -0.6900
v 1.5951 0.1402 -0.9100
v 1.5951 0.1402 -0.6900
v 1.6600 0.3400 0.6900
v 1.6600 0.3400 0.9100
v 1.5951 0.5398 0.6900
v 1.5951 0.5398 0.9100
v 1.4251 0.6634 0.6900
v 1.4251 0.6634 0.9100
v 1.2149 0.6634 0.6900
v 1.2149 0.6634 0.9100
v 1.0449 0.5398 0.6900
v 1.0449 0.5398 0.9100
v 0.9800 0.3400 0.6900
v 0.9800 0.3400 0.9100
v 1.0449 0.1402 0.6900
v 1.0449 0.1402 0.9100
v 1.2149 0.0166 0.6900
v 1.2149 0.0166 0.9100
v 1.4251 0.0166 0.6900
v 1.4251 0.0166 0.9100
v 1.5951 0.1402 0.6900
v 1.5951 0.1402 0.9100
v -1.0400 0.3400 -0.9100
v -1.0400 0.3400 -0.6900
v -1.1049 0.5398 -0.9100
v -1.1049 0.5398 -0.6900
v -1.2749 0.6634 -0.9100
v -1.2749 0.6634 -0.6900
v -1.4851 0.6634 -0.9100
v -1.4851 0.6634 -0.6900
v -1.6551 0.5398 -0.9100
v -1.6551 0.5398 -0.6900
v -1.7200 0.3400 -0.9100
v -1.7200 0.3400 -0.6900
v -1.6551 0.1402 -0.9100
v -1.6551 0.1402 -0.6900
v -1.4851 0.0166 -0.9100
v -1.4851 0.0166 -0.6900
v -1.2749 0.0166 -0.9100
v -1.2749 0.0166 -0.6900
v -1.1049 0.1402 -0.9100
v -1.1049 0.1402 -0.6900
v -1.0400 0.3400 0.6900
v -1.0400 0.3400 0.9100
v -1.1049 0.5398 0.6900
v -1.1049 0.5398 0.9100
v -1.2749 0.6634 0.6900
v -1.2749 0.6634 0.9100
v -1.4851 0.6634 0.6900
v -1.4851 0.6634 0.9100
v -1.6551 0.5398 0.6900
v -1.6551 0.5398 0.9100
v -1.7200 0.3400 0.6900
v -1.7200 0.3400 0.9100
v -1.6551 0.1402 0.6900
v -1.6551 0.1402 0.9100
v -1.4851 0.0166 0.6900
v -1.4851 0.0166 0.9100
v -1.2749 0.0166 0.6900
v -1.2749 0.0166 0.9100
v -1.1049 0.1402 0.6900
v -1.1049 0.1402 0.9100
f 1 4 3 2
f 5 6 7 8
f 1 2 6 5
f 4 8 7 3
f 1 5 8 4
f 2 3 7 6
f 9 12 11 10
f 13 14 15 16
f 9 10 14 13
f 12 16 15 11
f 9 13 16 12
f 10 11 15 14
f 17 20 19 18
f 21 22 23 24
f 17 18 22 21
f 20 24 23 19
f 17 21 24 20
f 18 19 23 22
f 25 27 28 26
f 27 29 30 28
f 29 31 32 30
f 31 33 34 32
f 33 35 36 34
f 35 37 38 36
f 37 39 40 38
f 39 41 42 40
f 41 43 44 42
f 43 25 26 44
f 25 29 27
f 26 28 30
f 25 31 29
f 26 30 32
f 25 33 31
f 26 32 34
f 25 35 33
f 26 34 36
f 25 37 35
f 26 36 38
f 25 39 37
f 26 38 40
f 25 41 39
f 26 40 42
f 25 43 41
f 26 42 44
f 45 47 48 46
f 47 49 50 48
f 49 51 52 50
f 51 53 54 52
f 53 55 56 54
f 55 57 58 56
f 57 59 60 58
f 59 61 62 60
f 61 63 64 62
f 63 45 46 64
f 45 49 47
f 46 48 50
f 45 51 49
f 46 50 52
f 45 53 51
f 46 52 54
f 45 55 53
f 46 54 56
f 45 57 55
f 46 56 58
f 45 59 57
f 46 58 60
f 45 61 59
f 46 60 62
f 45 63 61
f 46 62 64
f 65 67 68 66
f 67 69 70 68
f 69 71 72 70
f 71 73 74 72
f 73 75 76 74
f 75 77 78 76
f 77 79 80 78
f 79 81 82 80
f 81 83 84 82
f 83 65 66 84
f 65 69 67
f 66 68 70
f 65 71 69
f 66 70 72
f 65 73 71
f 66 72 74
f 65 75 73
f 66 74 76
f 65 77 75
f 66 76 78
f 65 79 77
f 66 78 80
f 65 81 79
f 66 80 82
f 65 83 81
f 66 82 84
f 85 87 88 86
f 87 89 90 88
f 89 91 92 90
f 91 93 94 92
f 93 95 96 94
f 95 97 98 96
f 97 99 100 98
f 99 101 102 100
f 101 103 104 102
f 103 85 86 104
f 85 89 87
f 86 88 90
f 85 91 89
f 86 90 92
f 85 93 91
f 86 92 94
f 85 95 93
f 86 94 96
f 85 97 95
f 86 96 98
f 85 99 97
f 86 98 100
f 85 101 99
f 86 100 102
f 85 103 101
f 86 102 104
